<?xml version="1.0" encoding="UTF-8" standalone="no"?>
<svg
   xmlns:dc="http://purl.org/dc/elements/1.1/"
   xmlns:cc="http://creativecommons.org/ns#"
   xmlns:rdf="http://www.w3.org/1999/02/22-rdf-syntax-ns#"
   xmlns:svg="http://www.w3.org/2000/svg"
   xmlns="http://www.w3.org/2000/svg"
   xmlns:sodipodi="http://sodipodi.sourceforge.net/DTD/sodipodi-0.dtd"
   xmlns:inkscape="http://www.inkscape.org/namespaces/inkscape"
   inkscape:version="1.0 (4035a4fb49, 2020-05-01)"
   height="270.77393"
   width="328.99408"
   sodipodi:docname="authentication_two_color.svg"
   version="1.1"
   viewBox="0 0 328.99408 270.77393"
   data-name="Layer 1"
   id="Layer_1">
  <metadata
     id="metadata1127">
    <rdf:RDF>
      <cc:Work
         rdf:about="">
        <dc:format>image/svg+xml</dc:format>
        <dc:type
           rdf:resource="http://purl.org/dc/dcmitype/StillImage" />
        <dc:title>#139_authentication_twocolour</dc:title>
      </cc:Work>
    </rdf:RDF>
  </metadata>
  <defs
     id="defs1125" />
  <sodipodi:namedview
     inkscape:current-layer="Layer_1"
     inkscape:window-maximized="0"
     inkscape:window-y="10"
     inkscape:window-x="1930"
     inkscape:cy="167.66351"
     inkscape:cx="183.01924"
     inkscape:zoom="1.8243355"
     fit-margin-bottom="0"
     fit-margin-right="0"
     fit-margin-left="0"
     fit-margin-top="0"
     showgrid="false"
     id="namedview1123"
     inkscape:window-height="1037"
     inkscape:window-width="1900"
     inkscape:pageshadow="2"
     inkscape:pageopacity="0"
     guidetolerance="10"
     gridtolerance="10"
     objecttolerance="10"
     borderopacity="1"
     bordercolor="#666666"
     pagecolor="#ffffff" />
  <title
     id="title1022">#139_authentication_twocolour</title>
  <path
     id="path1024"
     fill="#782144"
     d="m 57.168847,123.79792 c 0,0 -10.28,9.37 -5.94,26.37 3,11.63 12.16,42.13 -20.84,41.31 l 0.84,7.52 c 0,0 33.07,4.33 38.33,-23.83 6,-31.83 -12.39,-51.37 -12.39,-51.37 z" />
  <path
     id="path1026"
     opacity="0.2"
     fill="#ffffff"
     d="m 57.168847,123.79792 c 0,0 -10.28,9.37 -5.94,26.37 3,11.63 12.16,42.13 -20.84,41.31 l 0.84,7.52 c 0,0 33.07,4.33 38.33,-23.83 6,-31.83 -12.39,-51.37 -12.39,-51.37 z" />
  <rect
     id="rect1028"
     opacity="0.27"
     fill="#c9c9c9"
     height="138.44"
     width="213.07001"
     y="62.177921"
     x="72.948845" />
  <polygon
     transform="translate(-28.441153,-7.3920783)"
     id="polygon1030"
     fill="#c9c9c9"
     points="237.71,243.61 225.3,192.2 191.83,192.2 183.73,243.61 " />
  <ellipse
     id="ellipse1032"
     opacity="0.45"
     fill="#e6e6e6"
     ry="8.04"
     rx="136.85001"
     cy="246.68793"
     cx="180.92885" />
  <rect
     id="rect1034"
     fill="#e6e6e6"
     height="31.620001"
     width="213.07001"
     y="168.99792"
     x="72.948845" />
  <circle
     id="circle1036"
     fill="#a5a5a5"
     r="8.5600004"
     cy="182.92793"
     cx="180.67885" />
  <rect
     id="rect1038"
     fill="#e6e6e6"
     height="16.52"
     width="75.910004"
     y="227.20793"
     x="142.97885" />
  <path
     id="path1040"
     opacity="0.4"
     fill="#a5a5a5"
     d="m 72.988847,94.607922 c 0,0 8.55,-5.11 10.89,4.13 2.34,9.239998 4.1,19.479998 12.23,21.889998 8.130003,2.41 -20.39,-7.65 -20.39,-7.65 z" />
  <circle
     id="circle1042"
     fill="#24285b"
     r="3.73"
     cy="75.987923"
     cx="90.278847" />
  <circle
     id="circle1044"
     fill="#782144"
     r="3.73"
     cy="75.987923"
     cx="101.36884" />
  <circle
     id="circle1046"
     fill="#ffd200"
     r="3.73"
     cy="75.987923"
     cx="111.81884" />
  <path
     id="path1048"
     fill="#782144"
     d="m 62.188847,240.28792 c 0,0 -1.89,2.68 -4.64,2.17 -2.75,-0.51 -4.17,1.93 -1.94,3.28 2.23,1.35 9.31,-0.06 9.31,-0.06 l 0.89,-3.93 z" />
  <path
     id="path1050"
     opacity="0.4"
     fill="#a5a5a5"
     d="m 110.67885,123.79792 c 0,0 10.06,0.05 13.21,20.78 3.15,20.73 6.92,55.15 -27.780003,55.51 v 0 -24.63 z" />
  <path
     id="path1052"
     fill="#782144"
     d="m 81.118847,113.00792 c 0,0 28.380003,0 31.720003,15.75 3.34,15.75 -14.760003,62.85 -14.760003,62.85 l -32,-1.38 c 0,0 1.34,-17.52 -3.49,-31.69 -4.83,-14.17 -22.84,-39.63 18.53,-45.53 z" />
  <path
     id="path1054"
     opacity="0.08"
     d="m 96.108847,130.65792 c 0,0 -9,9.07 -4.46,23.44 4.54,14.37 -26.73,14 -26.73,14 a 91,91 0 0 1 1,9.07 c 0,0 13.64,10.25 34.640003,7.62 l 1.26,-3.6 5.39,-13.24 z" />
  <path
     id="path1056"
     fill="#f4a28c"
     d="m 61.838847,97.307922 c 0,0 1.89,5.779998 4.4,9.079998 a 3.05,3.05 0 0 0 4.29,0.57 6.72,6.72 0 0 0 2.86,-6.73 l -0.4,-5.589998 a 5.45,5.45 0 0 0 -4.49,-4.42 c -4.12,-0.93 -7.94,3.63 -6.66,7.09 z" />
  <polygon
     transform="translate(-28.441153,-7.3920783)"
     id="polygon1058"
     fill="#f4a28c"
     points="100.55,127.09 98.75,112.73 102.64,105.14 109.56,120.4 " />
  <path
     id="path1060"
     fill="#24285b"
     d="m 63.328847,96.957922 a 24.65,24.65 0 0 0 5,-2.59 5.05,5.05 0 0 0 2.18,5.11 4.12,4.12 0 0 0 5.23,-0.43 l -3.18,-7.14 a 6.18,6.18 0 0 0 -5,-3.85 21.33,21.33 0 0 0 -2.9,-0.15 c -2.42,0 -4.86,2.71 -7.31,2.11 a 1.46,1.46 0 0 0 -1.79,1.79 c 0.61,2.32 2.46,5.59 5.92,5.53 a 5.87,5.87 0 0 0 1.85,-0.38 z" />
  <path
     id="path1062"
     fill="#f4a28c"
     d="m 69.818847,99.607922 c 0,0 -0.87,-2.17 0.81,-2.69 1.68,-0.52 3,2.61 0.9,3.829998 z" />
  <path
     id="path1064"
     fill="#f4a28c"
     d="m 63.218847,100.88792 -0.66,2.82 a 1,1 0 0 0 1.15,1.16 l 2.31,-0.5 z" />
  <path
     id="path1066"
     opacity="0.31"
     fill="#ce8172"
     d="m 70.558847,106.95792 c 0,0 2.06,-2.83 2.07,-4.66 a 8.94,8.94 0 0 1 -1.43,9.89 z" />
  <path
     id="path1068"
     fill="#782144"
     d="m 98.718847,125.79792 a 8.1,8.1 0 0 1 13.540003,2.21 c 3.83,9 8.22,25 1.66,42.38 -10,26.57 -49.620003,-2.76 -49.620003,-2.76 l 6,-6.5 c 0,0 20.84,9.85 29.11,4.73 6.860003,-4.25 -10.98,-28.11 -0.69,-40.06 z" />
  <path
     id="path1070"
     opacity="0.2"
     fill="#ffffff"
     d="m 98.718847,125.79792 a 8.1,8.1 0 0 1 13.540003,2.21 c 3.83,9 8.22,25 1.66,42.38 -10,26.57 -49.620003,-2.76 -49.620003,-2.76 l 6,-6.5 c 0,0 20.84,9.85 29.11,4.73 6.860003,-4.25 -10.98,-28.11 -0.69,-40.06 z" />
  <path
     id="path1072"
     fill="#f4a28c"
     d="m 65.118847,166.73792 c 0,0 -6.94,-1.36 -7.46,-6.87 -0.52,-5.51 7.61,2.62 9.05,0 1.44,-2.62 4.18,-2.72 3.54,1.26 z" />
  <path
     id="path1074"
     fill="#782144"
     d="m 90.338847,228.88792 c 0,0 2.44,2.19 1.6,4.86 -0.84,2.67 1.41,4.38 3,2.33 1.59,-2.05 1.08,-9.25 1.08,-9.25 l -3.79,-1.36 z" />
  <path
     id="path1076"
     fill="#24285b"
     d="m 65.808847,241.74792 -5.42,-1.46 15.33,-42.88 -6.16,-7.07 28.52,1.27 a 18.31,18.31 0 0 1 -6.87,13.31 41.73,41.73 0 0 0 -7.13,7.05 166,166 0 0 0 -18.27,29.78 z" />
  <path
     id="path1078"
     fill="#24285b"
     d="m 66.038847,190.17792 -0.85,20.9 a 9.88,9.88 0 0 0 5.62,9.34 l 20,9.57 2,-4.83 -11.62,-8.44 a 8.73,8.73 0 0 1 -3.15,-9.83 l 5.31,-16 z" />
  <path
     id="path1080"
     fill="#782144"
     d="m 190.81885,106.47792 h -5.2 V 94.307922 a 7.51,7.51 0 1 0 -15,0 v 12.169998 h -5.21 V 94.307922 a 12.72,12.72 0 0 1 25.43,0 z" />
  <path
     id="path1082"
     opacity="0.46"
     fill="#ffffff"
     d="m 190.81885,106.47792 h -5.2 V 94.307922 a 7.51,7.51 0 1 0 -15,0 v 12.169998 h -5.21 V 94.307922 a 12.72,12.72 0 0 1 25.43,0 z" />
  <rect
     id="rect1084"
     fill="#782144"
     height="31.01"
     width="38.900002"
     y="97.177925"
     x="158.65886" />
  <path
     id="path1086"
     fill="#24285b"
     d="m 181.63885,108.44792 a 4.11,4.11 0 1 0 -8.21,0 4,4 0 0 0 1.33,3 v 8.72 h 5.64 v -8.78 a 4.13,4.13 0 0 0 1.24,-2.94 z" />
  <rect
     id="rect1088"
     fill="#ffffff"
     height="15.64"
     width="73.669998"
     y="140.05792"
     x="141.26886" />
  <rect
     id="rect1090"
     fill="#ffd200"
     height="15.64"
     width="22.74"
     y="140.05792"
     x="192.19885" />
  <circle
     id="circle1092"
     fill="#24285b"
     r="2.1500001"
     cy="148.00792"
     cx="150.70885" />
  <circle
     id="circle1094"
     fill="#24285b"
     r="2.1500001"
     cy="148.00792"
     cx="158.69885" />
  <circle
     id="circle1096"
     fill="#24285b"
     r="2.1500001"
     cy="148.00792"
     cx="166.49886" />
  <circle
     id="circle1098"
     fill="#24285b"
     r="2.1500001"
     cy="148.00792"
     cx="174.48885" />
  <circle
     id="circle1100"
     fill="#24285b"
     r="2.1500001"
     cy="148.00792"
     cx="182.65886" />
  <path
     id="path1102"
     fill="#f4a28c"
     d="m 31.048847,197.41792 c 0,0 -10,0.28 -9.49,-5.86 0.51,-6.14 8.83,-0.08 8.83,-0.08 z" />
  <rect
     id="rect1104"
     fill="#ffd200"
     transform="rotate(-57.52)"
     height="19.110001"
     width="11.07"
     y="111.55783"
     x="-149.47581" />
  <rect
     id="rect1106"
     opacity="0.4"
     fill="#a5a5a5"
     height="17.16"
     width="31.74"
     y="100.59792"
     x="254.28886" />
  <path
     id="path1108"
     opacity="0.12"
     stroke-dasharray="2, 10"
     stroke-width="2"
     stroke-linejoin="round"
     stroke-linecap="round"
     stroke="#000000"
     fill="none"
     d="m 21.558847,165.27792 c 0,0 -28.3600004,-108.189998 34,-139.169998 14.08,-7 103.190003,-25.0000003 187.380003,18.17" />
  <path
     id="path1110"
     opacity="0.58"
     fill="#782144"
     d="m 293.88885,234.11792 c 0,0 -8.51,-2.33 -10.36,-10.26 0,0 13.19,-2.66 13.56,11 z" />
  <path
     id="path1112"
     opacity="0.73"
     fill="#782144"
     d="m 294.93885,233.26792 c 0,0 -5.95,-9.4 -0.72,-18.2 0,0 10,6.37 5.58,18.22 z" />
  <path
     id="path1114"
     fill="#782144"
     d="m 296.46885,233.27792 c 0,0 3.14,-9.93 12.64,-11.82 0,0 1.79,6.45 -6.15,11.84 z" />
  <polygon
     transform="translate(-28.441153,-7.3920783)"
     id="polygon1116"
     fill="#24285b"
     points="331.33,252.3 332.93,240.5 318.73,240.44 320.46,252.25 " />
  <rect
     id="rect1118"
     fill="#24285b"
     height="53.169998"
     width="53.169998"
     y="49.02792"
     x="246.55885" />
  <polyline
     transform="translate(-28.441153,-7.3920783)"
     id="polyline1120"
     stroke-width="5"
     stroke-linejoin="round"
     stroke-linecap="round"
     stroke="#ffffff"
     fill="none"
     points="291.17 82.5 297.35 92.78 312.17 73.22" />
</svg>
