<?xml version="1.0" encoding="UTF-8" standalone="no"?>
<svg
   xmlns:dc="http://purl.org/dc/elements/1.1/"
   xmlns:cc="http://creativecommons.org/ns#"
   xmlns:rdf="http://www.w3.org/1999/02/22-rdf-syntax-ns#"
   xmlns:svg="http://www.w3.org/2000/svg"
   xmlns="http://www.w3.org/2000/svg"
   xmlns:sodipodi="http://sodipodi.sourceforge.net/DTD/sodipodi-0.dtd"
   xmlns:inkscape="http://www.inkscape.org/namespaces/inkscape"
   inkscape:version="1.0 (4035a4fb49, 2020-05-01)"
   height="335.21783"
   width="314.57465"
   sodipodi:docname="authentication.svg"
   version="1.1"
   viewBox="0 0 314.57465 335.21784"
   data-name="Layer 1"
   id="Layer_1">
  <metadata
     id="metadata1092">
    <rdf:RDF>
      <cc:Work
         rdf:about="">
        <dc:format>image/svg+xml</dc:format>
        <dc:type
           rdf:resource="http://purl.org/dc/dcmitype/StillImage" />
        <dc:title>#13 authentication</dc:title>
      </cc:Work>
    </rdf:RDF>
  </metadata>
  <defs
     id="defs1090" />
  <sodipodi:namedview
     inkscape:current-layer="Layer_1"
     inkscape:window-maximized="0"
     inkscape:window-y="10"
     inkscape:window-x="1930"
     inkscape:cy="192.29143"
     inkscape:cx="81.621279"
     inkscape:zoom="1.8243355"
     fit-margin-bottom="0"
     fit-margin-right="0"
     fit-margin-left="0"
     fit-margin-top="0"
     showgrid="false"
     id="namedview1088"
     inkscape:window-height="1037"
     inkscape:window-width="1900"
     inkscape:pageshadow="2"
     inkscape:pageopacity="0"
     guidetolerance="10"
     gridtolerance="10"
     objecttolerance="10"
     borderopacity="1"
     bordercolor="#666666"
     pagecolor="#ffffff" />
  <title
     id="title997">#13 authentication</title>
  <rect
     id="rect999"
     fill="#e6e6e6"
     transform="scale(-1)"
     height="165.34"
     width="231.89999"
     y="-228.63037"
     x="-279.29651" />
  <rect
     id="rect1001"
     fill="#ffffff"
     height="18.57"
     width="77"
     y="168.18036"
     x="124.09652" />
  <circle
     id="circle1003"
     fill="#24285b"
     r="2.3099999"
     cy="177.64035"
     cx="137.96651" />
  <circle
     id="circle1005"
     fill="#24285b"
     r="2.3099999"
     cy="177.64035"
     cx="150.07651" />
  <circle
     id="circle1007"
     fill="#24285b"
     r="2.3099999"
     cy="177.64035"
     cx="162.98651" />
  <circle
     id="circle1009"
     fill="#24285b"
     r="2.3099999"
     cy="177.64035"
     cx="175.09651" />
  <circle
     id="circle1011"
     fill="#24285b"
     r="2.3099999"
     cy="177.64035"
     cx="187.21651" />
  <rect
     id="rect1013"
     opacity="0.4"
     fill="#a5a5a5"
     height="40.889999"
     width="58.849998"
     y="109.34035"
     x="132.76651" />
  <path
     id="path1015"
     fill="#f4a28c"
     d="m 81.406517,207.16035 c 0,0 4.27,19.77 15.54,18.75 11.270003,-1.02 15.000003,-33.24 15.000003,-33.24 l -4.14,-3.89 z" />
  <path
     id="path1017"
     fill="#782144"
     d="m 70.406517,162.47035 c 0,0 24.28,3.61 26.58,30.2 l -15.93,6.81 z" />
  <path
     id="path1019"
     opacity="0.2"
     fill="#ffffff"
     d="m 81.056517,199.48035 -10.65,-37 c 0,0 24.28,3.61 26.58,30.2" />
  <path
     id="path1021"
     opacity="0.08"
     d="m 163.40652,166.31035 7.12,11.84 -9.59,5.4 -7.79,-14 -10.74,5.38 8,15 -10.15,5.93 -7.16,-12.33 -5,3.74 a 11.15,11.15 0 0 0 -4.44,9.6 c 0.48,8.13 0.5,22.76 -4.52,31.42 l -33.510003,0.32 3.84,-30.62 -36.06,-33.3 -4.46,-14.69 -2.84,-13.54 6.45,-3.44 a 5.88,5.88 0 0 1 6.35,0.52 c 2.35,1.81 4.76,4.93 3.39,9.76 -2.42,8.56 -1.08,18 4.53,19.3 5.61,1.3 28.61,-5.66 33.690003,7.17 5.08,12.83 7.75,13.9 20.05,3.75 12.3,-10.15 32.84,-20.22 32.84,-20.22 z" />
  <ellipse
     style="stroke-width:0.963766"
     id="ellipse1023"
     opacity="0.45"
     fill="#e6e6e6"
     ry="11.35"
     rx="144.24971"
     cy="287.22916"
     cx="151.51315" />
  <path
     id="path1025"
     fill="#782144"
     d="m 47.256517,282.21035 c 0,0 -2,2.47 -0.83,4.92 1.17,2.45 -0.72,4.43 -2.57,2.68 -1.85,-1.75 -2.38,-8.77 -2.38,-8.77 l 3.46,-1.85 z" />
  <path
     id="path1027"
     fill="#782144"
     d="m 106.47652,264.14035 c 0,0 1.24,3 4,3 2.76,0 3.58,2.7 1.17,3.52 -2.41,0.82 -8.86,-2 -8.86,-2 v -3.93 z" />
  <path
     id="path1029"
     fill="#f4a28c"
     d="m 48.476517,139.38035 c 0,0 3.34,4.9 4.4,8.81 a 3,3 0 0 1 -2.11,3.65 6.6,6.6 0 0 1 -6.91,-1.79 l -4.08,-3.67 a 5.33,5.33 0 0 1 -0.75,-6.11 c 1.73,-3.72 7.56,-3.99 9.45,-0.89 z" />
  <polygon
     transform="translate(-46.593483,28.380353)"
     id="polygon1031"
     fill="#f4a28c"
     points="101.85,134.5 95.49,121.9 88.21,117.87 90.92,134 " />
  <path
     id="path1033"
     fill="#24285b"
     d="m 47.306517,140.30035 a 23.14,23.14 0 0 1 -5,2.31 4.94,4.94 0 0 1 2.7,4.77 3.91,3.91 0 0 1 -1.07,2.57 2.11,2.11 0 0 1 -3.33,-0.57 l -2.7,-4.94 a 6.05,6.05 0 0 1 0,-6.19 21.93,21.93 0 0 1 1.6,-2.33 c 1.48,-1.84 5,-2.14 6,-4.4 a 1.44,1.44 0 0 1 2.44,-0.29 c 1.43,1.85 2.86,5.23 0.75,7.87 a 5.75,5.75 0 0 1 -1.39,1.2 z" />
  <path
     id="path1035"
     fill="#f4a28c"
     d="m 45.476517,146.87035 c 0,0 -1.16,-2 -2.57,-1 -1.41,1 0.25,3.85 2.43,3 z" />
  <path
     id="path1037"
     fill="#f4a28c"
     d="m 50.406517,142.55035 2.56,1.18 a 1,1 0 0 1 0.22,1.59 l -1.78,1.49 z" />
  <path
     id="path1039"
     opacity="0.31"
     fill="#ce8172"
     d="m 49.846517,152.18035 a 7.26,7.26 0 0 1 -3.79,-0.8 c 0,0 0.31,4.24 5.61,4.41 z" />
  <path
     id="path1041"
     fill="#782144"
     d="m 25.786517,168.28035 c 14.36,-9.47 38.55,-11.46 52.25,-2 13.51,9.28 7,64.18 7,64.18 l -28.05,8.45 c 0,0 -54.2200007,-40.43 -31.2,-70.63 z" />
  <path
     id="path1043"
     fill="#24285b"
     d="m 52.496517,239.38035 4.08,9.84 a 20.72,20.72 0 0 1 -4,16.48 l -10.17,13.11 5.61,4 14.74,-11.74 a 25.77,25.77 0 0 0 9.72,-20 v -5 l -1.83,-6.42 z" />
  <path
     id="path1045"
     opacity="0.08"
     d="m 42.406517,171.53035 c 0,0 10.64,5 9.22,21.14 -1.42,16.14 -1.42,35.1 23.75,34.14 v 8.45 l -16.49,2.48 -19.65,-19 -1.7,-29.2 z" />
  <polygon
     transform="translate(-46.593483,28.380353)"
     id="polygon1047"
     opacity="0.08"
     points="153.31,162.89 133.21,176.26 134.74,193.35 137.42,195.82 " />
  <path
     id="path1049"
     fill="#24285b"
     d="m 62.246517,246.85035 5.46,3.58 20.1,-6.22 a 7.52,7.52 0 0 1 9.53,5.4 l 3.720003,15.32 6.82,-0.57 -2.21,-20.7 a 15.33,15.33 0 0 0 -15.000003,-13.7 l -15.51,-0.21 z" />
  <path
     id="path1051"
     fill="#ffd200"
     d="m 161.51652,173.21035 9.89,-5.93 -14.38,-24 -76.620003,51.62 a 28.31,28.31 0 1 0 6.34,9.63 l 47.660003,-32.15 9.38,14.53 9.68,-6.25 -9.5,-14.72 9.41,-6.33 z m -101.110003,58.54 a 16.8,16.8 0 1 1 16.8,-16.8 16.82,16.82 0 0 1 -16.8,16.8 z" />
  <path
     id="path1053"
     fill="#f4a28c"
     d="m 42.656517,178.98035 c 1,-10.61 -12,-16.55 -19.26,-8.71 -5.8,6.29 -11.29,16.9 -10.75,34.35 1.11,36 11.81,44.46 39,42.72 a 15.91,15.91 0 0 0 9.57,-1.11 2.4,2.4 0 0 0 -0.61,-4.48 c -3.06,-0.6 -6.89,-1 -9,0.17 0,0 -24.85,-7.86 -17.55,-37.23 0.06,0 7.43,-13.42 8.6,-25.71 z" />
  <path
     id="path1055"
     fill="#782144"
     d="m 23.176517,169.93035 c -5.16,4.27 -11.45,12.68 -11.34,28.26 l 25.74,2.88 c 0,0 15,-24.94 1.26,-32.78 a 13.89,13.89 0 0 0 -15.66,1.64 z" />
  <path
     id="path1057"
     opacity="0.2"
     fill="#ffffff"
     d="m 23.176517,169.93035 c -5.16,4.27 -11.45,12.68 -11.34,28.26 l 25.74,2.88 c 0,0 15,-24.94 1.26,-32.78 a 13.89,13.89 0 0 0 -15.66,1.64 z" />
  <path
     id="path1059"
     fill="#f4a28c"
     d="m 106.71652,191.27035 c 0,0 6.12,-7.52 9.61,-4.45 3.49,3.07 -2.92,12.33 -9.61,4.45 z" />
  <polygon
     transform="translate(-46.593483,28.380353)"
     id="polygon1061"
     opacity="0.08"
     points="80.71,176.31 82.52,172.69 59.31,169.91 59.31,177.49 " />
  <circle
     id="circle1063"
     fill="#24285b"
     r="4.8400002"
     cy="75.730347"
     cx="64.176514" />
  <circle
     id="circle1065"
     fill="#782144"
     r="4.8400002"
     cy="75.730347"
     cx="78.576515" />
  <circle
     id="circle1067"
     fill="#ffd200"
     r="4.8400002"
     cy="75.730347"
     cx="92.146523" />
  <path
     id="path1069"
     fill="#ffffff"
     d="m 184.45652,109.38035 h -6.88 v -3.57 a 15.38,15.38 0 1 0 -30.76,0 v 3.57 h -6.88 v -3.57 a 22.26,22.26 0 0 1 44.52,0 z" />
  <circle
     id="circle1071"
     fill="#a5a5a5"
     r="5.7600002"
     cy="122.75035"
     cx="162.95651" />
  <rect
     id="rect1073"
     fill="#a5a5a5"
     height="15.35"
     width="6.3099999"
     y="125.71036"
     x="160.11652" />
  <rect
     id="rect1075"
     fill="#24285b"
     height="15.69"
     width="31.559999"
     y="196.84036"
     x="146.4165" />
  <rect
     id="rect1077"
     opacity="0.13"
     fill="#ffffff"
     height="5.1999998"
     width="11.03"
     y="199.48036"
     x="163.5565" />
  <path
     id="path1079"
     opacity="0.58"
     fill="#782144"
     d="m 272.58652,273.13035 c 0,0 -11.58,-3.11 -14.18,-13.87 0,0 17.91,-3.7 18.5,14.8 z" />
  <path
     id="path1081"
     opacity="0.73"
     fill="#782144"
     d="m 274.00652,271.97035 c 0,0 -8.14,-12.74 -1.07,-24.73 0,0 13.67,8.61 7.68,24.73 z" />
  <path
     id="path1083"
     fill="#782144"
     d="m 276.08652,271.97035 c 0,0 4.22,-13.51 17.12,-16.12 0,0 2.46,8.75 -8.29,16.12 z" />
  <polygon
     transform="translate(-46.593483,28.380353)"
     id="polygon1085"
     fill="#24285b"
     points="331.48,259.37 333.59,243.33 314.29,243.33 316.7,259.37 " />
</svg>
