<?xml version="1.0" encoding="UTF-8" standalone="no"?>
<svg
   xmlns:dc="http://purl.org/dc/elements/1.1/"
   xmlns:cc="http://creativecommons.org/ns#"
   xmlns:rdf="http://www.w3.org/1999/02/22-rdf-syntax-ns#"
   xmlns:svg="http://www.w3.org/2000/svg"
   xmlns="http://www.w3.org/2000/svg"
   xmlns:xlink="http://www.w3.org/1999/xlink"
   xmlns:sodipodi="http://sodipodi.sourceforge.net/DTD/sodipodi-0.dtd"
   xmlns:inkscape="http://www.inkscape.org/namespaces/inkscape"
   height="371.84042"
   width="395.58008"
   inkscape:version="1.0 (4035a4fb49, 2020-05-01)"
   sodipodi:docname="graduation.svg"
   version="1.1"
   viewBox="0 0 395.58006 371.84042"
   data-name="Layer 1"
   id="Layer_1">
  <metadata
     id="metadata1337">
    <rdf:RDF>
      <cc:Work
         rdf:about="">
        <dc:format>image/svg+xml</dc:format>
        <dc:type
           rdf:resource="http://purl.org/dc/dcmitype/StillImage" />
        <dc:title>Graduation</dc:title>
      </cc:Work>
    </rdf:RDF>
  </metadata>
  <sodipodi:namedview
     fit-margin-bottom="0"
     fit-margin-right="0"
     fit-margin-left="0"
     fit-margin-top="0"
     inkscape:current-layer="Layer_1"
     inkscape:window-maximized="0"
     inkscape:window-y="10"
     inkscape:window-x="1930"
     inkscape:cy="149.44099"
     inkscape:cx="240.62457"
     inkscape:zoom="1.4829585"
     showgrid="false"
     id="namedview1335"
     inkscape:window-height="1037"
     inkscape:window-width="1900"
     inkscape:pageshadow="2"
     inkscape:pageopacity="0"
     guidetolerance="10"
     gridtolerance="10"
     objecttolerance="10"
     borderopacity="1"
     bordercolor="#666666"
     pagecolor="#ffffff" />
  <defs
     id="defs1262">
    <linearGradient
       gradientUnits="userSpaceOnUse"
       y2="236.61"
       x2="241.50999"
       y1="242.28999"
       x1="258.56"
       id="linear-gradient">
      <stop
         id="stop1231"
         stop-opacity="0"
         offset="0" />
      <stop
         id="stop1233"
         offset="0.99" />
    </linearGradient>
    <linearGradient
       gradientTransform="translate(-2.8029488,-1.8608213)"
       xlink:href="#linear-gradient"
       y2="215.87"
       x2="157.91"
       y1="244.28"
       x1="226.61"
       id="linear-gradient-2" />
    <linearGradient
       xlink:href="#linear-gradient"
       y2="97.349998"
       x2="187.03999"
       y1="26.07"
       x1="143.64999"
       id="linear-gradient-3" />
    <linearGradient
       gradientTransform="translate(-2.8029488,-1.8608213)"
       xlink:href="#linear-gradient"
       y2="349.14999"
       x2="75.800003"
       y1="88.040001"
       x1="278.03"
       id="linear-gradient-4" />
    <linearGradient
       gradientTransform="translate(-2.8029488,-1.8608213)"
       xlink:href="#linear-gradient"
       y2="166.03"
       x2="228.69"
       y1="95.529999"
       x1="186.2"
       id="linear-gradient-5" />
    <linearGradient
       gradientTransform="translate(-2.8029488,-1.8608213)"
       gradientUnits="userSpaceOnUse"
       y2="73.970001"
       x2="186.27"
       y1="122.92"
       x1="192.60001"
       id="linear-gradient-6">
      <stop
         id="stop1240"
         stop-opacity="0"
         stop-color="#fff"
         offset="0.02" />
      <stop
         id="stop1242"
         stop-opacity="0.39"
         stop-color="#fff"
         offset="0.58" />
      <stop
         id="stop1244"
         stop-opacity="0.68"
         stop-color="#fff"
         offset="0.68" />
      <stop
         id="stop1246"
         stop-color="#fff"
         offset="1" />
    </linearGradient>
    <linearGradient
       gradientUnits="userSpaceOnUse"
       y2="97.800003"
       x2="214.60001"
       y1="97.800003"
       x1="191.73"
       id="linear-gradient-7">
      <stop
         id="stop1249"
         stop-color="#e5c5d5"
         offset="0" />
      <stop
         id="stop1251"
         stop-color="#ead4d1"
         offset="0.42" />
      <stop
         id="stop1253"
         stop-color="#f0e9cb"
         offset="1" />
    </linearGradient>
    <linearGradient
       gradientTransform="translate(-2.8029488,-1.8608213)"
       xlink:href="#linear-gradient-7"
       y2="71.669998"
       x2="205.22"
       y1="71.669998"
       x1="170.31"
       id="linear-gradient-8" />
    <linearGradient
       gradientTransform="translate(-2.8029488,-1.8608213)"
       xlink:href="#linear-gradient"
       y2="81.5"
       x2="161.64"
       y1="39.549999"
       x1="171.81"
       id="linear-gradient-9" />
    <linearGradient
       gradientTransform="translate(-2.8029488,-1.8608213)"
       xlink:href="#linear-gradient-7"
       y2="166.99001"
       x2="127.86"
       y1="166.99001"
       x1="86.110001"
       id="linear-gradient-10" />
    <linearGradient
       gradientTransform="translate(-2.8029488,-1.8608213)"
       xlink:href="#linear-gradient-7"
       y2="25.23"
       x2="285.45999"
       y1="25.23"
       x1="268.20001"
       id="linear-gradient-11" />
    <linearGradient
       gradientTransform="translate(-2.8029488,-1.8608213)"
       xlink:href="#linear-gradient"
       y2="369.81"
       x2="179.36"
       y1="336.88"
       x1="156.89"
       id="linear-gradient-12" />
    <linearGradient
       gradientTransform="translate(-2.8029488,-1.8608213)"
       xlink:href="#linear-gradient"
       y2="464.26001"
       x2="352.67001"
       y1="129.55"
       x1="150.99001"
       id="linear-gradient-13" />
    <linearGradient
       gradientTransform="translate(-2.8029488,-1.8608213)"
       y2="236.61"
       x2="241.50999"
       y1="242.28999"
       x1="258.56"
       gradientUnits="userSpaceOnUse"
       id="linearGradient1383"
       xlink:href="#linear-gradient"
       inkscape:collect="always" />
    <linearGradient
       gradientTransform="translate(-2.8029488,-1.8608213)"
       y2="97.800003"
       x2="214.60001"
       y1="97.800003"
       x1="191.73"
       gradientUnits="userSpaceOnUse"
       id="linearGradient1385"
       xlink:href="#linear-gradient-7"
       inkscape:collect="always" />
  </defs>
  <title
     id="title1264">Graduation</title>
  <path
     id="path1266"
     style="isolation:isolate"
     opacity="0.18"
     fill="#782144"
     d="m 393.24705,155.00918 c -0.35,-11.31 -2.88,-23 -10,-31.8 -8.9,-11 -23.22,-15.62 -35.55,-22.54 a 98.36,98.36 0 0 1 -43.5,-50.770001 c -2.34,-6.27 -4.11,-12.91 -8,-18.33 -10.72,-14.76 -33.1,-14.86 -50.16,-8.38 -17.06,6.48 -32.23,17.9 -50,21.88 -20.46,4.57 -41.64,-1.24 -62.57,-2.31 -20.93,-1.07 -45.269999,4.93 -54.269999,23.9 -5.68,12 -3.72,26.53 -9.13,38.680001 -12.2,27.46 -54.69,30.37 -66.8699998,57.8 -9.15,20.58 3.75,44.42 19.7499998,60.27 16,15.85 36,28.75 46.09,48.85 11,21.83 10.85,52.06 32.179999,64 21.33,11.94 50.6,-3.68 71.8,8.59 7.25,4.2 12.48,11.16 19.27,16.07 23.9,17.28 58.48,3.8 79.47,-16.92 26.42,-26.09 54.57,-56.63 77.66,-85.5 23.48,-29.36 45.05,-64.52 43.83,-103.49 z" />
  <path
     id="path1268"
     style="isolation:isolate"
     opacity="0.18"
     fill="#782144"
     d="m 197.04705,337.13918 a 6.23,6.23 0 0 0 1.68,-3.07 6.33,6.33 0 0 0 -1.36,-4.05 90.21,90.21 0 0 0 -11.67,-14.88 11.94,11.94 0 0 1 -2.44,-3.1 c -0.94,-2 -0.74,-4.62 -2.36,-6.15 -7.83,1.52 -15.89,4.35 -21,10.51 a 7.78,7.78 0 0 0 -1.91,3.75 c -0.25,1.89 0.65,3.73 1.55,5.42 q 2.26,4.27 4.67,8.48 a 26.85,26.85 0 0 0 4.54,6.37 46.49,46.49 0 0 0 4.21,3.28 c 2.11,1.61 3.85,4.16 6.06,5.56 2.21,1.4 3.91,-0.17 5.81,-1.4 a 55.12,55.12 0 0 0 12.22,-10.72 z" />
  <polygon
     transform="translate(0.1270512,-0.20082128)"
     id="polygon1270"
     fill="#782144"
     points="129.99,82.4 186.41,17.55 184.28,16.63 145.15,30.58 128.37,82.36 " />
  <path
     id="path1272"
     fill="#3e3e54"
     d="m 141.38705,233.23918 a 3.39,3.39 0 0 0 -2.27,-0.62 3.3,3.3 0 0 0 -1.42,0.85 184,184 0 0 0 -19.77,19.72 3.16,3.16 0 0 0 -0.75,1.2 2.6,2.6 0 0 0 1.23,2.52 c 3,2.26 7.26,1.43 10.75,0.07 a 31.94,31.94 0 0 0 8.4,-4.65 c 1.3,-1 2.49,-2.2 3.68,-3.36 2.55,-2.49 5.27,-5.16 6.6,-8.55 0.68,-1.74 0.87,-2.38 -0.41,-3.59 -1.56,-1.49 -4.15,-2.53 -6.04,-3.59 z" />
  <path
     id="path1274"
     fill="#3e3e54"
     d="m 147.32705,268.13918 a 19.13,19.13 0 0 0 -2.62,5.42 3,3 0 0 0 0,1.82 2.85,2.85 0 0 0 0.91,1.1 c 2.55,2 6.23,2.16 9.29,1 a 22.26,22.26 0 0 0 7.86,-5.67 66.1,66.1 0 0 0 7.15,-8.68 2.27,2.27 0 0 0 0.58,-1.67 2,2 0 0 0 -0.65,-1 c -3,-2.86 -8.86,-3.53 -12.76,-2.66 -4.28,1.01 -7.52,6.89 -9.76,10.34 z" />
  <path
     id="path1276"
     fill="#3e3e54"
     d="m 258.00705,189.72918 c 0,0 10,80.71 -3.53,85.13 -13.53,4.42 -49.2,-5.89 -52.14,-6.18 -2.94,-0.29 -32.14,-5.31 -32.14,-5.31 l 2.06,-14.73 c 0,0 58.62,7.07 62.75,2.66 4.13,-4.41 -3.54,-38.3 -3.54,-38.3 l 0.88,-17.67 z" />
  <path
     style="fill:url(#linearGradient1383)"
     id="path1278"
     fill="url(#linear-gradient)"
     d="m 258.00705,189.72918 c 0,0 10,80.71 -3.53,85.13 -13.53,4.42 -49.2,-5.89 -52.14,-6.18 -2.94,-0.29 -32.14,-5.31 -32.14,-5.31 l 2.06,-14.73 c 0,0 58.62,7.07 62.75,2.66 4.13,-4.41 -3.54,-38.3 -3.54,-38.3 l 0.88,-17.67 z" />
  <path
     id="path1280"
     fill="#3e3e54"
     d="m 201.44705,207.39918 c 0,0 -9.13,42.42 -15,41.54 -5.87,-0.88 -37.12,-12.67 -37.12,-12.67 0,0 -5.89,5.89 -5.59,11.49 0.3,5.6 42.42,33.58 52.14,28.87 9.72,-4.71 24.43,-36.49 38.32,-68.93 l 4.13,-8.4 z" />
  <path
     style="fill:url(#linear-gradient-2)"
     id="path1282"
     fill="url(#linear-gradient-2)"
     d="m 201.44705,207.39918 c 0,0 -9.13,42.42 -15,41.54 -5.87,-0.88 -37.12,-12.67 -37.12,-12.67 0,0 -5.89,5.89 -5.59,11.49 0.3,5.6 42.42,33.58 52.14,28.87 9.72,-4.71 24.43,-36.49 38.32,-68.93 l 4.13,-8.4 z" />
  <polygon
     transform="translate(0.1270512,-0.20082128)"
     id="polygon1284"
     fill="#782144"
     points="186.41,17.55 147.19,31.6 129.99,82.4 156.01,80.91 183.64,52.3 " />
  <polygon
     transform="translate(0.1270512,-0.20082128)"
     style="fill:url(#linear-gradient-3)"
     id="polygon1286"
     fill="url(#linear-gradient-3)"
     points="186.41,17.55 147.19,31.6 129.99,82.4 156.01,80.91 183.64,52.3 " />
  <path
     id="path1288"
     fill="#782144"
     d="m 255.52705,49.669179 a 111.11,111.11 0 0 0 10,-15 60,60 0 0 1 9.91,24.79 9.71,9.71 0 0 1 0.07,3.72 10.11,10.11 0 0 1 -1.62,3.27 91.28,91.28 0 0 1 -18.06,19.89 c -2.69,2.21 -5.58,4.34 -7.32,7.35 -3.47,6 -1.5,13.490001 0.34,20.150001 6.72,24.3 22.63,96.53 23.35,121.77 -21.56,12.28 -65.44,1.89 -90.24,2.73 11.49,-23.51 4.47,-72.15 0.45,-93 -17.27,8.86 -35.09,17.88 -54.43,19.63 l -10.47,-20.66 c 9.68,-7.8 22.31,-10.93 32.73,-17.72 8.91,-5.81 15.89,-14.09 24.12,-20.84 9.84,-8.060001 21.05,-13.130001 33.1,-16.900001 a 74.49,74.49 0 0 0 33,-20.48 213.44,213.44 0 0 0 15.07,-18.7 z" />
  <path
     style="fill:url(#linear-gradient-4)"
     id="path1290"
     fill="url(#linear-gradient-4)"
     d="m 275.51705,63.139179 a 9.91,9.91 0 0 1 -1.62,3.27 91.49,91.49 0 0 1 -18.06,19.93 c -2.69,2.2 -5.59,4.34 -7.33,7.35 -3.47,6 -1.5,13.490001 0.34,20.150001 6.72,24.3 22.63,96.53 23.35,121.77 -12,6.82 -30.83,6.65 -49.49,5.29 -14.93,-1.08 -29.72,-2.93 -40.75,-2.56 11.48,-23.51 4.47,-72.14 0.45,-93 -17.28,8.86 -35.09,17.88 -54.43,19.63 l -10.47,-20.66 c 9.68,-7.8 22.31,-10.93 32.73,-17.72 8.91,-5.81 15.89,-14.1 24.11,-20.83 9.85,-8.070001 21.07,-13.140001 33.11,-16.910001 a 74.4,74.4 0 0 0 32.94,-20.5 211.73,211.73 0 0 0 15.13,-18.68 111.64,111.64 0 0 0 10,-15 59.94,59.94 0 0 1 9.91,24.78 9.71,9.71 0 0 1 0.08,3.69 z" />
  <path
     style="fill:url(#linear-gradient-5)"
     id="path1292"
     fill="url(#linear-gradient-5)"
     d="m 217.34705,85.009179 3.09,-1.43 c 0,0 -1.29,14 -2.19,15.63 -0.9,1.630001 -10.2,12.930001 -10.2,12.930001 a 102.91,102.91 0 0 1 -14.08,3.23 c -7.1,1 -19.5,4.78 -24.28,4.91 a 119.3,119.3 0 0 0 -12.49,1.4 c 0,0 9.3,-10.07 10.46,-10.72 1.16,-0.65 49.69,-25.950001 49.69,-25.950001 z" />
  <path
     id="path1294"
     fill="#782144"
     d="m 155.94705,112.65918 a 28.81,28.81 0 0 0 15.84,4.25 c 5.26,-0.15 10.35,-1.74 15.37,-3.32 7.7,-2.43 12.34,1.82 19.89,-1 1.34,-0.51 5.8,-7.74 6.72,-8.83 a 8.26,8.26 0 0 0 1.41,-3 57,57 0 0 0 1.83,-22.620001 c 0.19,1.57 -16,8.41 -17.88,9.29 a 126.16,126.16 0 0 1 -14.29,5.51 59.31,59.31 0 0 0 -28.89,19.720001 z" />
  <path
     style="fill:url(#linear-gradient-6)"
     id="path1296"
     fill="url(#linear-gradient-6)"
     d="m 155.94705,112.65918 a 28.81,28.81 0 0 0 15.84,4.25 c 5.26,-0.15 10.35,-1.74 15.37,-3.32 7.7,-2.43 12.34,1.82 19.89,-1 1.34,-0.51 5.8,-7.74 6.72,-8.83 a 8.26,8.26 0 0 0 1.41,-3 57,57 0 0 0 1.83,-22.620001 c 0.19,1.57 -16,8.41 -17.88,9.29 a 126.16,126.16 0 0 1 -14.29,5.51 59.31,59.31 0 0 0 -28.89,19.720001 z" />
  <path
     style="fill:url(#linearGradient1385)"
     id="path1298"
     fill="url(#linear-gradient-7)"
     d="m 191.55705,89.759179 a 9.7,9.7 0 0 1 0.85,5.7 20.88,20.88 0 0 1 -2.07,4.940001 7.65,7.65 0 0 0 -0.89,5.18 6,6 0 0 0 3.23,3.62 15.54,15.54 0 0 0 4.81,1.26 11.22,11.22 0 0 0 2.08,0.16 10.48,10.48 0 0 0 4.62,-1.6 16.62,16.62 0 0 0 6.19,-5.35 8.08,8.08 0 0 0 0.69,-7.870001 6.32,6.32 0 0 0 -3,-2.81 c -1.25,-0.57 -2.72,-0.73 -3.76,-1.62 a 6.91,6.91 0 0 1 -1.48,-2.13 l -3.33,-6.41 a 3.17,3.17 0 0 0 -0.85,-1.15 2.48,2.48 0 0 0 -1.33,-0.41 c -2.65,-0.21 -5.11,1.1 -7.24,2.51 -1.33,0.87 -1.49,1.18 -0.58,2.5 a 21.76,21.76 0 0 1 2.06,3.48 z" />
  <path
     style="fill:url(#linear-gradient-8)"
     id="path1300"
     fill="url(#linear-gradient-8)"
     d="m 200.51705,67.139179 c 1.91,3.67 2.65,8.19 1,12 a 12.3,12.3 0 0 1 -4.32,4.92 8.27,8.27 0 0 1 -2.83,1.34 11.36,11.36 0 0 1 -3.77,0 26.21,26.21 0 0 1 -7.15,-1.46 19.34,19.34 0 0 1 -3.64,-2.08 3.13,3.13 0 0 0 -1.61,-0.72 3.8,3.8 0 0 0 -1,0.2 6,6 0 0 1 -2.66,0.09 3.24,3.24 0 0 1 -2.56,-1.83 c -0.38,-1 0.39,-2.44 1.48,-2.34 -2.36,-1.24 -3.74,-3.74 -5,-6.09 a 7.38,7.38 0 0 1 -0.91,-2.31 7.14,7.14 0 0 1 0.66,-3.56 20,20 0 0 1 2.09,-4.25 c 2,-2.83 5.17,-4.6 8.43,-5.75 3.44,-1.2 7.58,-1.89 11,-0.32 a 11.43,11.43 0 0 1 3,2.66 c 1.37,1.38 2.74,2.76 4,4.23 a 28,28 0 0 1 3.79,5.27 z" />
  <path
     id="path1302"
     fill="#3e3e54"
     d="m 179.03705,60.029179 a 14.26,14.26 0 0 0 -5.84,4.71 16.25,16.25 0 0 0 -1.59,4 5.07,5.07 0 0 0 -0.13,3.59 5,5 0 0 0 1.3,1.48 l 5.06,4.44 c -2.38,-2.09 -6.08,-0.91 -9.17,-1.57 a 8.55,8.55 0 0 1 -5.65,-4.54 11,11 0 0 1 -0.81,-7.33 12,12 0 0 0 0.36,-1.86 c 0.07,-1 -0.26,-2.07 -0.27,-3.12 0,-2.45 1.77,-4.52 3.6,-6.15 1.83,-1.63 3.91,-3.18 4.87,-5.44 a 12.79,12.79 0 0 1 1.27,-2.93 c 0.59,-0.75 4.51,-0.94 5.36,-1.38 2,-1 0.86,-2.26 2.82,-3.26 a 2.3,2.3 0 0 1 1.13,-0.35 2.21,2.21 0 0 1 1.34,0.69 c 2.33,2 6.47,6.6 6.09,10 -0.58,4.85 -6,7.13 -9.74,9.02 z" />
  <path
     id="path1304"
     fill="#782144"
     d="m 168.49705,76.219179 c -1.54,0.77 -3.32,-0.25 -4.73,-1.23 l -7.15,-5 a 5.42,5.42 0 0 1 -1.57,-1.44 5.22,5.22 0 0 1 -0.57,-1.87 26.89,26.89 0 0 1 0.93,-13.48 15.86,15.86 0 0 1 9.12,-9.58 c 0.63,-0.22 3.37,-2.43 4,-2.35 0.63,0.08 4.39,1.87 8.84,2.65 0.9,0.16 -6.82,5 -9.58,15.22 -2.67,10 -0.09,10.82 0.71,17.08 z" />
  <path
     style="fill:url(#linear-gradient-9)"
     id="path1306"
     fill="url(#linear-gradient-9)"
     d="m 168.49705,76.219179 c -1.54,0.77 -3.32,-0.25 -4.73,-1.23 l -7.15,-5 a 5.42,5.42 0 0 1 -1.57,-1.44 5.22,5.22 0 0 1 -0.57,-1.87 26.89,26.89 0 0 1 0.93,-13.48 15.86,15.86 0 0 1 9.12,-9.58 c 0.63,-0.22 3.37,-2.43 4,-2.35 a 61,61 0 0 1 8.84,2.65 c 0.85,0.33 -6.82,5 -9.58,15.22 -2.67,10 -0.09,10.82 0.71,17.08 z" />
  <path
     id="path1308"
     fill="#782144"
     d="m 134.47705,69.429179 c -0.44,3.52 -1.35,7 -1.32,10.52 0.07,9.07 3.19,17.82 4.32,26.820001 a 15,15 0 0 1 0,5.05 c -0.41,1.91 -1.46,3.61 -2.15,5.44 -1.23,3.27 -1.28,6.85 -1.32,10.34 l 2.13,-4.16 0.23,1.8 c 0.07,-0.32 0.67,0.07 0.4,0.26 a 5.35,5.35 0 0 0 0.58,-2.86 13.44,13.44 0 0 1 0.14,3.8 53.78,53.78 0 0 0 2.44,-12.62 c 0.15,-2 -0.05,-4.4 -1.81,-5.34 a 64.36,64.36 0 0 0 -1.54,-10.430001 c -1.1,-3.81 -3.1,-13.17 -2.65,-20.47 a 56.86,56.86 0 0 1 2.2,-12.66 c 0,0 -1.09,0.04 -1.65,4.51 z" />
  <path
     style="fill:url(#linear-gradient-10)"
     id="path1310"
     fill="url(#linear-gradient-10)"
     d="m 100.51705,157.26918 c -1.669999,-0.4 -3.399999,-1 -5.059999,-0.57 -1.66,0.43 -3,2.58 -1.87,3.91 0.86,1 2.91,1.48 2.57,2.78 a 1.84,1.84 0 0 1 -0.62,0.85 c -2.11,1.82 -5,2.26 -7.62,3.34 -2.62,1.08 -5.1,3.5 -4.53,6.23 a 25.68,25.68 0 0 0 7,4.92 12.84,12.84 0 0 0 10.909999,-0.71 c 4.5,-2.53 7,-7.5 11,-10.79 3.18,-2.62 7.18,-4.07 10.53,-6.47 0.3,-0.22 2,-0.68 2.14,-1 a 1.81,1.81 0 0 0 -0.08,-1 c -0.63,-2.25 -2.51,-6.71 -4.29,-8.1 -5.64,5.09 -12.18,8.48 -20.08,6.61 z" />
  <path
     style="fill:url(#linear-gradient-11)"
     id="path1312"
     fill="url(#linear-gradient-11)"
     d="m 272.11705,46.949179 c 3.93,-7.47 1.41,-17 4.83,-24.68 1.2,-2.71 3.08,-5.05 4.37,-7.71 1.29,-2.66 1.94,-5.9100003 0.57,-8.5300003 a 12.58,12.58 0 0 0 -1.69,-2.27 l -2.73,-3.21999998 a 1.72,1.72 0 0 0 -1,-0.73 c -0.59,-0.07 -1.07,0.47 -1.36,1 -1.09,1.99999998 -1,4.41999998 -1.31,6.68999998 -0.31,2.27 -1.27,4.7700003 -3.42,5.5700003 a 8.69,8.69 0 0 0 -4.18,-5.0800003 c -0.33,4.4400003 3.23,8.3400003 3.47,12.7800003 a 15.59,15.59 0 0 1 -1,5.63 71.83,71.83 0 0 1 -3.28,8.39 c 1,2.51 2.17,5.24 3.15,7.75 a 13,13 0 0 0 1.66,3.29 c 0.54,0.69 1.16,0.69 1.92,1.12 z" />
  <path
     id="path1314"
     style="isolation:isolate"
     opacity="0.18"
     fill="#782144"
     d="m 330.01705,196.26918 a 125.39,125.39 0 0 1 12.35,-26.35 c 2.31,-3.73 4.93,-7.81 4.23,-12.14 q -20.52,-9.44 -40.67,-19.64 c -0.58,-0.3 -11.08,16.59 -11.85,18.3 -2.28,5.07 -1.89,9.13 1.59,13.48 8.53,10.67 22.89,19.12 34.35,26.35 z" />
  <path
     id="path1316"
     fill="#fff"
     d="m 333.24705,193.03918 a 125.86,125.86 0 0 1 12.35,-26.35 c 2.31,-3.73 4.93,-7.81 4.23,-12.14 q -20.53,-9.41 -40.63,-19.68 c -0.58,-0.3 -11.08,16.59 -11.85,18.3 -2.28,5.07 -1.89,9.13 1.59,13.48 8.53,10.71 22.85,19.16 34.31,26.39 z" />
  <path
     id="path1318"
     style="isolation:isolate"
     opacity="0.18"
     fill="#782144"
     d="m 93.197051,206.66918 c -3.07,-2.15 -19,22.47 -20.66,24.93 -2.88,-2.31 -4.84,-6.36 -7.68,-9.11 -3.08,-3 -5.76,-4.74 -5.65,-9.44 0.16,-7.45 9.28,-17.68 14.06,-22.66 6.77,5.19 12.83,11.34 19.93,16.28 z" />
  <path
     id="path1320"
     fill="#fff"
     d="m 91.767051,203.43918 c -3.07,-2.14 -19,22.47 -20.66,24.93 -2.88,-2.31 -4.84,-6.36 -7.68,-9.11 -3.08,-3 -5.76,-4.73 -5.65,-9.43 0.16,-7.46 9.28,-17.68 14.06,-22.67 6.78,5.19 12.84,11.34 19.93,16.28 z" />
  <path
     id="path1322"
     fill="#fff"
     d="m 192.61705,332.78918 a 5,5 0 0 1 -1.1,3.16 16.09,16.09 0 0 1 -2.36,2.45 l -24.76,21.89 c -2.43,2.15 -5,4.36 -8.1,5.25 -6.77,1.93 -13.47,-2.86 -18.89,-7.36 -4.63,-3.83 -9.36,-7.79 -13.07,-12.46 a 35,35 0 0 1 -4.48,-7.18 c -1.06,-2.3 20.81,-14.85 22.88,-16 l 29.27,-16.91 18.44,22.9 c 1.04,1.23 2.11,2.61 2.17,4.26 z" />
  <path
     id="path1324"
     fill="#782144"
     d="m 191.51705,335.94918 a 16.09,16.09 0 0 1 -2.36,2.45 l -24.76,21.89 c -2.43,2.15 -5,4.36 -8.1,5.25 -6.77,1.93 -13.47,-2.86 -18.89,-7.36 -4.63,-3.83 -9.36,-7.79 -13.07,-12.46 1.65,-3.72 6.06,-6.42 10,-9.22 9.46,-6.77 19,-13.6 29.58,-18.41 a 1.46,1.46 0 0 1 2.12,0.44 q 5.85,6.24 12,12.19 a 22.21,22.21 0 0 0 4.85,3.86 7.7,7.7 0 0 0 6,0.73 c 0.89,-0.3 2.11,-0.7 2.54,0.13 a 0.94,0.94 0 0 1 0.09,0.51 z" />
  <path
     style="fill:url(#linear-gradient-12)"
     id="path1326"
     fill="url(#linear-gradient-12)"
     d="m 191.51705,335.94918 a 16.09,16.09 0 0 1 -2.36,2.45 l -24.76,21.89 c -2.43,2.15 -5,4.36 -8.1,5.25 -6.77,1.93 -13.47,-2.86 -18.89,-7.36 -4.63,-3.83 -9.36,-7.79 -13.07,-12.46 1.65,-3.72 6.06,-6.42 10,-9.22 9.46,-6.77 19,-13.6 29.58,-18.41 a 1.46,1.46 0 0 1 2.12,0.44 q 5.85,6.24 12,12.19 a 22.21,22.21 0 0 0 4.85,3.86 7.7,7.7 0 0 0 6,0.73 c 0.89,-0.3 2.11,-0.7 2.54,0.13 a 0.94,0.94 0 0 1 0.09,0.51 z" />
  <path
     id="path1328"
     stroke-width="1.17"
     stroke-miterlimit="10"
     stroke="#782144"
     fill="none"
     d="m 163.38705,314.00918 2.51,-0.88 a 0.8,0.8 0 0 1 0.48,-0.07 0.85,0.85 0 0 1 0.36,0.32 69.73,69.73 0 0 0 10.84,11.35 2,2 0 0 1 0.75,0.92" />
  <path
     id="path1330"
     stroke-width="1.17"
     stroke-miterlimit="10"
     stroke="#782144"
     fill="none"
     d="m 171.50705,312.64918 a 62,62 0 0 0 7.09,8.49 l 8.6,9" />
  <path
     style="fill:url(#linear-gradient-13)"
     id="path1332"
     fill="url(#linear-gradient-13)"
     d="m 222.70705,240.89918 c -14.93,-1.08 -29.72,-2.93 -40.75,-2.56 11.48,-23.51 4.47,-72.14 0.45,-93 l 6.27,-5.05 c 0,0 7.62,45.07 9.42,54.37 1.8,9.3 7.24,35.39 15,39.52 6.45,3.42 8.96,5.96 9.61,6.72 z" />
</svg>
